# xmcd
#
# Track frame offsets:
#	150
#	13957
#	32647
#	48197
#	63230
#	75662
#	93792
#	107765
#
# Disc length: 1663 seconds
#
# Revision: 3
# Processed by: cddbd v1.4b41PL3 Copyright (c) Steve Scherf et al.
# Submitted via: CDmax 1.7.6
#
DISCID=57067d08
DTITLE=Various Artist - New Country - Volume 1
DYEAR=1900
DGENRE=
TTITLE0=Marty Stuart - Kiss Me, I'm Gone
TTITLE1=Suzy Bogguss - Hey Cinderella
TTITLE2=Hal Ketchum - Tonight We Might Just Fall In Love Again
TTITLE3=John Berry - What's In It for Me
TTITLE4=Diamond Rio - This Romeo Ain't Got Julie Yet
TTITLE5=Pam Tillis - Maybe It Was Memphis
TTITLE6=Doug Stone - Addicted to a Dollar
TTITLE7=Neal McCoy - No Doubt About It
EXTD=
EXTT0=
EXTT1=
EXTT2=
EXTT3=
EXTT4=
EXTT5=
EXTT6=
EXTT7=
PLAYORDER=
